<?xml version="1.0" encoding="iso-8859-1"?>
<!-- Generator: Adobe Illustrator 19.2.1, SVG Export Plug-In . SVG Version: 6.00 Build 0)  -->
<svg version="1.1" id="Layer_1" xmlns="http://www.w3.org/2000/svg" xmlns:xlink="http://www.w3.org/1999/xlink" x="0px" y="0px"
	 viewBox="0 0 19.455 18.104" style="enable-background:new 0 0 19.455 18.104;" xml:space="preserve">
<path style="fill:#FFFFFF;stroke:#BDC3C7;stroke-miterlimit:10;" d="M9.952,17.604H2.555c-1.135,0-2.055-0.916-2.055-2.047V8.188
	c0-1.131,0.92-2.047,2.055-2.047h7.397c1.135,0,2.055,0.916,2.055,2.047v7.369C12.007,16.688,11.087,17.604,9.952,17.604z"/>
<path style="fill:#2AACCA;" d="M2.34,8.827c1.553,0.67,2.817,1.207,4.389,1.885c0.108,0.047,0.218,0.06,0.328-0.035
	c3.762-3.506,7.439-6.944,11.201-10.45c0.493-0.443,1.443-0.171,1.138,0.239C12.731,8.123,9.228,12.603,7.104,16.141
	c-0.193,0.323-0.559,0.305-0.758-0.005c-0.468-0.741-1.175-1.902-1.194-1.932c-1.506-2.618-1.554-2.727-2.991-5.228
	C2.093,8.853,2.24,8.764,2.34,8.827L2.34,8.827z"/>
</svg>
