<?xml version="1.0" encoding="iso-8859-1"?>
<!-- Generator: Adobe Illustrator 19.2.1, SVG Export Plug-In . SVG Version: 6.00 Build 0)  -->
<svg version="1.1" id="Layer_1" xmlns="http://www.w3.org/2000/svg" xmlns:xlink="http://www.w3.org/1999/xlink" x="0px" y="0px"
	 viewBox="0 0 370 200" style="enable-background:new 0 0 370 200;" xml:space="preserve">
<g>
	<rect style="fill:none;" width="370" height="100"/>
	<rect y="100" style="fill:none;" width="370" height="100"/>
	<g>
		<g>
			<path style="fill:#1A6B54;" d="M30.896,22.926l12.072,32.283h-7.37l-2.442-7.189H21.084l-2.532,7.189h-7.144l12.208-32.283
				H30.896z M31.303,42.73l-4.069-11.846h-0.091L22.938,42.73H31.303z"/>
			<path style="fill:#1A6B54;" d="M59.199,22.926v26.315h15.734v5.968H52.101V22.926H59.199z"/>
			<path style="fill:#1A6B54;" d="M107.939,22.926v5.969H92.34v7.46h13.519v5.516H92.34v13.338h-7.098V22.926H107.939z"/>
			<path style="fill:#1A6B54;" d="M131.993,22.926l12.072,32.283h-7.371l-2.442-7.189h-12.072l-2.532,7.189h-7.144l12.208-32.283
				H131.993z M132.399,42.73l-4.069-11.846h-0.09l-4.205,11.846H132.399z"/>
			<path style="fill:#1A6B54;" d="M166.084,40.108v5.515h-13.609v-5.515H166.084z"/>
			<path style="fill:#1A6B54;" d="M195.337,22.926c1.446,0,2.75,0.234,3.911,0.701c1.16,0.468,2.155,1.108,2.984,1.922
				c0.829,0.814,1.461,1.756,1.899,2.826c0.437,1.07,0.655,2.223,0.655,3.458c0,1.9-0.399,3.542-1.198,4.928
				c-0.799,1.387-2.102,2.442-3.911,3.165v0.09c0.874,0.242,1.598,0.611,2.171,1.108c0.572,0.498,1.04,1.086,1.401,1.763
				c0.362,0.678,0.626,1.425,0.792,2.239s0.278,1.628,0.339,2.442c0.029,0.513,0.06,1.115,0.09,1.808
				c0.03,0.693,0.082,1.402,0.159,2.125c0.074,0.724,0.196,1.409,0.361,2.057s0.414,1.198,0.747,1.65h-7.099
				c-0.392-1.025-0.633-2.245-0.724-3.662c-0.09-1.417-0.226-2.773-0.407-4.069c-0.241-1.688-0.754-2.923-1.537-3.708
				c-0.784-0.784-2.064-1.175-3.842-1.175h-7.099v12.614h-7.099V22.926H195.337z M192.805,37.53c1.628,0,2.848-0.361,3.662-1.085
				s1.221-1.899,1.221-3.526c0-1.567-0.407-2.705-1.221-3.414c-0.814-0.707-2.034-1.063-3.662-1.063h-7.777v9.088H192.805z"/>
			<path style="fill:#1A6B54;" d="M241.047,22.926v5.969h-17.045v6.917h15.644v5.516h-15.644v7.913h17.407v5.968h-24.505V22.926
				H241.047z"/>
		</g>
		<g>
			<path style="fill:#1A6B54;" d="M17.98,64.613c0.547,0,1.038,0.088,1.477,0.265c0.438,0.177,0.813,0.418,1.127,0.726
				c0.313,0.307,0.552,0.663,0.717,1.067c0.165,0.404,0.248,0.839,0.248,1.305c0,0.717-0.151,1.338-0.453,1.861
				c-0.302,0.524-0.794,0.922-1.476,1.194v0.034c0.33,0.091,0.603,0.23,0.819,0.419c0.216,0.187,0.393,0.409,0.529,0.666
				c0.137,0.256,0.236,0.537,0.299,0.844c0.062,0.308,0.105,0.615,0.128,0.922c0.011,0.194,0.023,0.422,0.034,0.683
				c0.011,0.262,0.031,0.529,0.06,0.802c0.028,0.273,0.074,0.531,0.137,0.777c0.062,0.245,0.156,0.452,0.281,0.623h-2.68
				c-0.148-0.386-0.239-0.847-0.273-1.383c-0.034-0.534-0.085-1.046-0.153-1.537c-0.091-0.636-0.285-1.103-0.581-1.399
				c-0.296-0.296-0.78-0.444-1.451-0.444h-2.68V76.8h-2.68V64.613H17.98z M17.025,70.127c0.614,0,1.075-0.137,1.383-0.41
				c0.307-0.274,0.461-0.717,0.461-1.332c0-0.591-0.153-1.021-0.461-1.288c-0.307-0.268-0.768-0.401-1.383-0.401h-2.936v3.431
				H17.025z"/>
			<path style="fill:#1A6B54;" d="M32.848,64.613v2.253h-6.436v2.611h5.907v2.083h-5.907v2.987h6.572V76.8h-9.252V64.613H32.848z"/>
			<path style="fill:#1A6B54;" d="M40.871,64.613L45.429,76.8h-2.782l-0.922-2.714h-4.558L36.211,76.8h-2.697l4.609-12.188H40.871z
				 M41.024,72.09l-1.536-4.472h-0.034l-1.588,4.472H41.024z"/>
			<path style="fill:#1A6B54;" d="M49.167,64.613v9.934h5.94V76.8h-8.62V64.613H49.167z"/>
			<path style="fill:#1A6B54;" d="M70.47,64.613v2.253h-6.436v2.611h5.907v2.083h-5.907v2.987h6.572V76.8h-9.252V64.613H70.47z"/>
			<path style="fill:#1A6B54;" d="M74.464,73.796c0.148,0.285,0.344,0.516,0.589,0.691c0.245,0.177,0.532,0.308,0.862,0.393
				c0.33,0.085,0.671,0.127,1.024,0.127c0.239,0,0.495-0.02,0.768-0.06c0.273-0.039,0.53-0.116,0.768-0.23
				c0.239-0.113,0.438-0.27,0.598-0.469c0.159-0.199,0.239-0.453,0.239-0.76c0-0.329-0.105-0.597-0.316-0.802
				c-0.211-0.205-0.486-0.376-0.828-0.512c-0.341-0.137-0.728-0.256-1.161-0.359c-0.433-0.102-0.871-0.216-1.314-0.341
				c-0.455-0.114-0.899-0.253-1.332-0.419c-0.432-0.165-0.819-0.378-1.161-0.639c-0.341-0.262-0.618-0.589-0.828-0.982
				c-0.21-0.393-0.316-0.868-0.316-1.426c0-0.626,0.134-1.169,0.401-1.63c0.267-0.461,0.617-0.845,1.05-1.152
				c0.432-0.308,0.922-0.535,1.468-0.683c0.546-0.147,1.092-0.222,1.639-0.222c0.637,0,1.249,0.072,1.835,0.214
				c0.586,0.142,1.107,0.373,1.562,0.691s0.817,0.725,1.084,1.22s0.401,1.095,0.401,1.801h-2.595c-0.023-0.364-0.1-0.666-0.23-0.905
				c-0.131-0.238-0.304-0.427-0.521-0.563c-0.216-0.137-0.464-0.233-0.742-0.29c-0.279-0.057-0.583-0.085-0.913-0.085
				c-0.216,0-0.432,0.023-0.649,0.068c-0.216,0.046-0.412,0.126-0.589,0.239c-0.177,0.114-0.322,0.256-0.435,0.427
				s-0.171,0.387-0.171,0.649c0,0.239,0.046,0.432,0.137,0.581c0.091,0.148,0.27,0.284,0.537,0.409
				c0.268,0.126,0.637,0.251,1.11,0.376c0.472,0.126,1.09,0.285,1.852,0.479c0.227,0.045,0.543,0.127,0.947,0.247
				c0.404,0.12,0.805,0.311,1.204,0.572c0.398,0.263,0.742,0.612,1.033,1.05s0.435,0.998,0.435,1.682
				c0,0.558-0.108,1.075-0.325,1.553c-0.216,0.478-0.537,0.89-0.964,1.238c-0.427,0.347-0.956,0.618-1.587,0.811
				c-0.632,0.193-1.363,0.29-2.194,0.29c-0.672,0-1.323-0.083-1.955-0.248c-0.632-0.165-1.189-0.424-1.673-0.777
				c-0.484-0.352-0.868-0.802-1.152-1.348c-0.284-0.546-0.421-1.194-0.409-1.945h2.595C74.243,73.164,74.316,73.511,74.464,73.796z"
				/>
			<path style="fill:#1A6B54;" d="M82.538,66.866v-2.253h9.986v2.253h-3.653V76.8h-2.68v-9.934H82.538z"/>
			<path style="fill:#1A6B54;" d="M98.43,64.613l4.558,12.188h-2.782l-0.922-2.714h-4.558L93.77,76.8h-2.697l4.609-12.188H98.43z
				 M98.584,72.09l-1.536-4.472h-0.034l-1.588,4.472H98.584z"/>
			<path style="fill:#1A6B54;" d="M101.52,66.866v-2.253h9.986v2.253h-3.653V76.8h-2.68v-9.934H101.52z"/>
			<path style="fill:#1A6B54;" d="M122.021,64.613v2.253h-6.436v2.611h5.907v2.083h-5.907v2.987h6.572V76.8h-9.252V64.613H122.021z"
				/>
			<path style="fill:#1A6B54;" d="M132.485,64.613l2.851,8.381h0.034l2.697-8.381h3.773V76.8h-2.509v-8.637h-0.034l-2.988,8.637
				h-2.065l-2.987-8.552h-0.034V76.8h-2.509V64.613H132.485z"/>
			<path style="fill:#1A6B54;" d="M150.272,64.613l4.558,12.188h-2.782l-0.922-2.714h-4.558l-0.956,2.714h-2.698l4.609-12.188
				H150.272z M150.425,72.09l-1.537-4.472h-0.034l-1.588,4.472H150.425z"/>
			<path style="fill:#1A6B54;" d="M158.551,64.613l5.087,8.176h0.033v-8.176h2.509V76.8h-2.68l-5.07-8.159h-0.034V76.8h-2.509
				V64.613H158.551z"/>
			<path style="fill:#1A6B54;" d="M174.614,64.613l4.558,12.188h-2.782l-0.922-2.714h-4.558l-0.956,2.714h-2.698l4.609-12.188
				H174.614z M174.768,72.09l-1.537-4.472h-0.034l-1.588,4.472H174.768z"/>
			<path style="fill:#1A6B54;" d="M187.45,76.707c-0.581,0.244-1.167,0.367-1.758,0.367c-0.934,0-1.773-0.163-2.518-0.486
				c-0.745-0.325-1.374-0.771-1.886-1.34c-0.513-0.569-0.905-1.237-1.178-2.005c-0.274-0.769-0.41-1.596-0.41-2.484
				c0-0.911,0.136-1.755,0.41-2.535c0.273-0.78,0.665-1.46,1.178-2.041c0.512-0.58,1.14-1.035,1.886-1.365
				c0.745-0.33,1.585-0.495,2.518-0.495c0.626,0,1.232,0.094,1.818,0.281c0.585,0.188,1.115,0.464,1.588,0.829
				c0.472,0.364,0.862,0.813,1.169,1.348c0.308,0.534,0.495,1.149,0.564,1.844h-2.56c-0.16-0.683-0.467-1.195-0.922-1.537
				c-0.456-0.341-1.008-0.512-1.656-0.512c-0.603,0-1.116,0.117-1.537,0.35c-0.421,0.233-0.762,0.546-1.024,0.938
				c-0.262,0.393-0.453,0.839-0.572,1.34c-0.12,0.501-0.179,1.018-0.179,1.553c0,0.512,0.06,1.01,0.179,1.493
				c0.119,0.483,0.31,0.919,0.572,1.306c0.262,0.386,0.603,0.697,1.024,0.93c0.421,0.233,0.934,0.35,1.537,0.35
				c0.887,0,1.573-0.225,2.057-0.674c0.483-0.45,0.765-1.101,0.844-1.955h-2.697v-1.996h5.121V76.8h-1.707l-0.273-1.383
				C188.56,76.033,188.031,76.462,187.45,76.707z"/>
			<path style="fill:#1A6B54;" d="M196.958,64.613l2.851,8.381h0.034l2.697-8.381h3.772V76.8h-2.509v-8.637h-0.034l-2.987,8.637
				h-2.065l-2.988-8.552h-0.034V76.8h-2.509V64.613H196.958z"/>
			<path style="fill:#1A6B54;" d="M217.784,64.613v2.253h-6.436v2.611h5.906v2.083h-5.906v2.987h6.572V76.8h-9.252V64.613H217.784z"
				/>
			<path style="fill:#1A6B54;" d="M222.393,64.613l5.086,8.176h0.034v-8.176h2.509V76.8h-2.68l-5.07-8.159h-0.034V76.8h-2.509
				V64.613H222.393z"/>
			<path style="fill:#1A6B54;" d="M231.422,66.866v-2.253h9.986v2.253h-3.653V76.8h-2.68v-9.934H231.422z"/>
		</g>
		<radialGradient id="SVGID_1_" cx="305.2043" cy="15.5774" r="21.3667" gradientUnits="userSpaceOnUse">
			<stop  offset="0" style="stop-color:#FFFFFF"/>
			<stop  offset="1" style="stop-color:#1B2224"/>
		</radialGradient>
		<path style="fill:url(#SVGID_1_);" d="M314.753,21.875h-1.097l-3.772-4.566c-2.566-3.087-7.304-3.074-9.869,0.013l-3.772,4.553
			h-1.097c-1.665,0-3.015,1.297-3.015,2.962v44.841h25.74V24.837C317.87,23.172,316.418,21.875,314.753,21.875z"/>
		<polygon style="fill:#1B2123;" points="292.13,69.678 274.97,69.678 274.97,35.051 292.13,24.837 		"/>
		<polygon style="fill:#FFFFFF;" points="274.97,55.659 292.13,59.336 292.13,42.023 274.97,45.7 		"/>
		<path style="fill:#FFFFFF;" d="M282.324,33.75L282.324,33.75c-1.424,0.409-2.579,1.713-2.579,2.911v5.679l5.158-1.483v-5.679
			C284.903,33.98,283.748,33.34,282.324,33.75z"/>
		<polygon style="fill:#1B2224;" points="317.87,69.678 335.03,69.678 335.03,35.051 317.87,24.837 		"/>
		<polygon style="fill:#FFFFFF;" points="335.03,55.659 317.87,59.336 317.87,42.023 335.03,45.7 		"/>
		<path style="fill:#FFFFFF;" d="M327.676,33.75L327.676,33.75c1.424,0.409,2.579,1.713,2.579,2.911v5.679l-5.158-1.483v-5.679
			C325.097,33.98,326.252,33.34,327.676,33.75z"/>
		<linearGradient id="SVGID_2_" gradientUnits="userSpaceOnUse" x1="305" y1="85" x2="305" y2="61.2427">
			<stop  offset="0" style="stop-color:#2AACCA"/>
			<stop  offset="1" style="stop-color:#1A6B54"/>
		</linearGradient>
		<path style="fill:url(#SVGID_2_);" d="M358.047,61.245c-11.823,0.917-20.01,2.506-30.167,5.267
			C316.236,69.678,305,69.678,305,69.678s-11.236,0-22.88-3.166c-10.156-2.762-18.344-4.351-30.167-5.267
			c-0.594-0.046-0.764,0.791-0.199,0.977c10.453,3.434,20.189,10.911,27.352,16.037C287.457,84.234,305,85,305,85
			s17.543-0.766,25.894-6.742c7.163-5.126,16.899-12.602,27.352-16.037C358.811,62.036,358.64,61.199,358.047,61.245z"/>
		
			<radialGradient id="SVGID_3_" cx="304.5914" cy="79.0695" r="54.3411" gradientTransform="matrix(1 0 0 0.5168 0 38.2079)" gradientUnits="userSpaceOnUse">
			<stop  offset="0.0678" style="stop-color:#FFFFFF"/>
			<stop  offset="1" style="stop-color:#FFFFFF;stop-opacity:0"/>
		</radialGradient>
		<path style="fill:url(#SVGID_3_);" d="M358.046,61.245c-11.822,0.917-20.009,2.506-30.165,5.267
			C316.236,69.678,305,69.678,305,69.678s-11.236,0-22.88-3.166c-10.156-2.762-18.343-4.35-30.165-5.267
			c-0.596-0.046-0.762,0.793-0.194,0.979c10.451,3.434,20.184,9.071,27.346,14.196c2.088,1.494,4.75,2.739,7.569,3.766
			c11.812,4.303,24.838,4.303,36.65,0c2.819-1.027,5.481-2.272,7.569-3.766c7.162-5.125,16.895-10.762,27.346-14.196
			C358.808,62.037,358.642,61.198,358.046,61.245z"/>
		<path style="fill:#FFFFFF;" d="M309.622,32.523v2.222h-9.244v-2.222c0-2.553,2.069-4.622,4.622-4.622l0,0
			C307.553,27.901,309.622,29.971,309.622,32.523z M302.217,35.829h-1.839v3.18h1.839V35.829z M304.642,35.829h-1.839v3.18h1.839
			V35.829z M307.068,35.829h-1.839v3.18h1.839V35.829z M309.494,35.829h-1.839v3.18h1.839V35.829z"/>
		<linearGradient id="SVGID_4_" gradientUnits="userSpaceOnUse" x1="305" y1="59.3363" x2="305" y2="42.0228">
			<stop  offset="0" style="stop-color:#FFFFFF;stop-opacity:0.9"/>
			<stop  offset="0.5" style="stop-color:#FFFFFF"/>
			<stop  offset="1" style="stop-color:#FFFFFF;stop-opacity:0.9"/>
		</linearGradient>
		<rect x="292.13" y="42.023" style="fill:url(#SVGID_4_);" width="25.74" height="17.313"/>
		<path d="M309.622,49.747v2.222h-9.244v-2.222c0-2.553,2.069-4.622,4.622-4.622l0,0C307.553,45.125,309.622,47.195,309.622,49.747z
			 M302.217,53.053h-1.839v3.18h1.839V53.053z M304.642,53.053h-1.839v3.18h1.839V53.053z M307.068,53.053h-1.839v3.18h1.839V53.053
			z M309.494,53.053h-1.839v3.18h1.839V53.053z"/>
	</g>
	<g>
		<path style="fill:#FFFFFF;" d="M317.665,124.755c0-1.65-1.354-2.973-3.004-2.973h-1.086l-3.737-4.485
			c-2.542-3.058-7.236-3.064-9.777-0.006l-3.737,4.491h-1.086c-1.65,0-3.071,1.323-3.071,2.973l-17.084,10.157v0.606v9.943v9.866
			v6.943v0.762c2.429,0.57,4.981,1.193,7.486,1.875C293.802,167.961,304.89,168,305,168c0.11,0,11.014-0.035,22.263-3.094
			c2.506-0.681,4.889-1.305,7.317-1.875v-0.762v-6.943v-9.866v-9.943v-0.606L317.665,124.755z M324.867,135.037
			c0-1.187,1.017-1.82,2.429-1.415c1.411,0.406,2.428,1.697,2.428,2.883v5.626l-4.857-1.469V135.037z M300.581,132.407
			c0-2.529,2.025-4.579,4.553-4.579c2.529,0,4.553,2.05,4.553,4.579v2.124h-9.107V132.407z M309.688,135.746v3.036h-1.821v-3.036
			H309.688z M307.26,135.746v3.036h-1.821v-3.036H307.26z M304.831,135.746v3.036h-1.821v-3.036H304.831z M300.581,135.746h1.821
			v3.036h-1.821V135.746z M279.939,136.506c0-1.187,1.017-2.478,2.429-2.883c1.411-0.406,2.428,0.228,2.428,1.415v5.626
			l-4.857,1.469V136.506z M276.296,155.573v-10.37l15.785-3.382v16.993L276.296,155.573z M293.296,158.817v-17h23.071v17H293.296z
			 M333.366,155.578l-15.617,3.238h-0.169v-17h0.169l15.617,3.381V155.578z M357.597,161.465c-0.015,0-0.03,0.001-0.046,0.002
			c-11.712,0.908-19.823,2.482-29.884,5.218c-11.535,3.137-22.666,3.137-22.666,3.137s-11.131,0-22.666-3.137
			c-10.061-2.736-18.172-4.31-29.884-5.218c-0.016-0.001-0.031-0.002-0.046-0.002c-0.55,0-0.696,0.791-0.151,0.97
			c10.356,3.402,20,10.808,27.096,15.887C287.621,184.241,305,185,305,185s17.379-0.759,25.651-6.678
			c7.096-5.078,16.741-12.484,27.096-15.887C358.293,162.256,358.147,161.465,357.597,161.465z M303.01,152.745h1.821v3.036h-1.821
			V152.745z M302.403,152.745h-1.821v3.036h1.821V152.745z M305.438,155.781h1.821v-3.036h-1.821V155.781z M307.867,155.781h1.821
			v-3.036h-1.821V155.781z M309.688,149.47c0-2.529-2.025-4.579-4.553-4.579c-2.529,0-4.553,2.05-4.553,4.579v2.061h9.107V149.47z"
			/>
		<g>
			<path style="fill:#FFFFFF;" d="M31.397,122.926l12.072,32.283h-7.37l-2.442-7.189H21.586l-2.532,7.189H11.91l12.208-32.283
				H31.397z M31.804,142.73l-4.069-11.846h-0.091l-4.205,11.846H31.804z"/>
			<path style="fill:#FFFFFF;" d="M59.7,122.926v26.315h15.734v5.968H52.602v-32.283H59.7z"/>
			<path style="fill:#FFFFFF;" d="M108.44,122.926v5.969H92.841v7.46h13.519v5.516H92.841v13.337h-7.098v-32.283H108.44z"/>
			<path style="fill:#FFFFFF;" d="M132.494,122.926l12.072,32.283h-7.371l-2.442-7.189h-12.072l-2.532,7.189h-7.144l12.208-32.283
				H132.494z M132.901,142.73l-4.069-11.846h-0.09l-4.205,11.846H132.901z"/>
			<path style="fill:#FFFFFF;" d="M166.585,140.108v5.515h-13.609v-5.515H166.585z"/>
			<path style="fill:#FFFFFF;" d="M195.838,122.926c1.446,0,2.75,0.234,3.911,0.701c1.16,0.468,2.155,1.108,2.984,1.922
				c0.829,0.814,1.461,1.756,1.899,2.826c0.437,1.07,0.655,2.223,0.655,3.458c0,1.9-0.399,3.542-1.198,4.928
				c-0.799,1.387-2.102,2.442-3.911,3.165v0.09c0.874,0.242,1.598,0.611,2.171,1.108c0.572,0.498,1.04,1.086,1.401,1.763
				c0.362,0.678,0.626,1.425,0.792,2.239c0.166,0.814,0.278,1.628,0.339,2.442c0.029,0.513,0.06,1.115,0.09,1.808
				c0.03,0.693,0.082,1.402,0.159,2.125c0.074,0.724,0.196,1.409,0.361,2.057c0.166,0.648,0.414,1.198,0.747,1.65h-7.099
				c-0.392-1.025-0.633-2.245-0.724-3.662c-0.09-1.417-0.226-2.773-0.407-4.069c-0.241-1.688-0.754-2.923-1.537-3.708
				c-0.784-0.784-2.064-1.175-3.842-1.175h-7.099v12.614h-7.099v-32.283H195.838z M193.306,137.53c1.628,0,2.848-0.361,3.662-1.085
				c0.814-0.724,1.221-1.899,1.221-3.526c0-1.567-0.407-2.705-1.221-3.414c-0.814-0.707-2.034-1.063-3.662-1.063h-7.777v9.088
				H193.306z"/>
			<path style="fill:#FFFFFF;" d="M241.549,122.926v5.969h-17.045v6.917h15.644v5.516h-15.644v7.913h17.407v5.968h-24.505v-32.283
				H241.549z"/>
		</g>
		<g>
			<path style="fill:#FFFFFF;" d="M18.482,164.613c0.547,0,1.038,0.088,1.477,0.265c0.438,0.176,0.813,0.418,1.127,0.726
				c0.313,0.307,0.552,0.663,0.717,1.067c0.165,0.404,0.248,0.839,0.248,1.305c0,0.717-0.151,1.338-0.453,1.861
				c-0.302,0.524-0.794,0.922-1.476,1.194v0.034c0.33,0.091,0.603,0.23,0.819,0.419c0.216,0.187,0.393,0.409,0.529,0.666
				c0.137,0.256,0.236,0.537,0.299,0.844c0.062,0.308,0.105,0.615,0.128,0.922c0.011,0.194,0.023,0.422,0.034,0.683
				c0.011,0.262,0.031,0.529,0.06,0.802c0.028,0.273,0.074,0.531,0.137,0.777c0.062,0.245,0.156,0.452,0.281,0.623h-2.68
				c-0.148-0.386-0.239-0.847-0.273-1.383c-0.034-0.534-0.085-1.046-0.153-1.537c-0.091-0.636-0.285-1.103-0.581-1.399
				c-0.296-0.296-0.78-0.444-1.451-0.444h-2.68v4.763h-2.68v-12.188H18.482z M17.526,170.126c0.614,0,1.075-0.137,1.383-0.41
				c0.307-0.274,0.461-0.717,0.461-1.332c0-0.591-0.153-1.021-0.461-1.288c-0.307-0.268-0.768-0.401-1.383-0.401H14.59v3.431H17.526
				z"/>
			<path style="fill:#FFFFFF;" d="M33.35,164.613v2.253h-6.436v2.611h5.907v2.083h-5.907v2.987h6.572v2.253h-9.252v-12.188H33.35z"
				/>
			<path style="fill:#FFFFFF;" d="M41.372,164.613L45.93,176.8h-2.782l-0.922-2.714h-4.558l-0.956,2.714h-2.697l4.609-12.188H41.372
				z M41.526,172.09l-1.536-4.472h-0.034l-1.588,4.472H41.526z"/>
			<path style="fill:#FFFFFF;" d="M49.668,164.613v9.934h5.94v2.253h-8.62v-12.188H49.668z"/>
			<path style="fill:#FFFFFF;" d="M70.971,164.613v2.253h-6.436v2.611h5.907v2.083h-5.907v2.987h6.572v2.253h-9.252v-12.188H70.971z
				"/>
			<path style="fill:#FFFFFF;" d="M74.966,173.796c0.148,0.285,0.344,0.516,0.589,0.691c0.245,0.177,0.532,0.308,0.862,0.393
				c0.33,0.085,0.671,0.127,1.024,0.127c0.239,0,0.495-0.02,0.768-0.06c0.273-0.039,0.53-0.116,0.768-0.23
				c0.239-0.113,0.438-0.27,0.598-0.469c0.159-0.199,0.239-0.453,0.239-0.76c0-0.329-0.105-0.597-0.316-0.802
				c-0.211-0.205-0.486-0.376-0.828-0.512c-0.341-0.137-0.728-0.256-1.161-0.359c-0.433-0.102-0.871-0.216-1.314-0.341
				c-0.455-0.114-0.899-0.253-1.332-0.419c-0.432-0.165-0.819-0.378-1.161-0.639c-0.341-0.262-0.618-0.589-0.828-0.982
				c-0.21-0.393-0.316-0.868-0.316-1.426c0-0.626,0.134-1.169,0.401-1.63c0.267-0.461,0.617-0.845,1.05-1.152
				c0.432-0.308,0.922-0.535,1.468-0.683c0.546-0.147,1.092-0.222,1.639-0.222c0.637,0,1.249,0.072,1.835,0.214
				c0.586,0.142,1.107,0.373,1.562,0.691s0.817,0.725,1.084,1.22s0.401,1.095,0.401,1.801h-2.595c-0.023-0.364-0.1-0.666-0.23-0.905
				c-0.131-0.238-0.304-0.427-0.521-0.563c-0.216-0.137-0.464-0.233-0.742-0.29c-0.279-0.057-0.583-0.085-0.913-0.085
				c-0.216,0-0.432,0.023-0.649,0.068c-0.216,0.046-0.412,0.126-0.589,0.239c-0.177,0.114-0.322,0.256-0.435,0.427
				s-0.171,0.387-0.171,0.649c0,0.239,0.046,0.432,0.137,0.581c0.091,0.148,0.27,0.284,0.537,0.409
				c0.268,0.126,0.637,0.251,1.11,0.376c0.472,0.126,1.09,0.285,1.852,0.479c0.227,0.045,0.543,0.127,0.947,0.247
				c0.404,0.12,0.805,0.311,1.204,0.572c0.398,0.263,0.742,0.612,1.033,1.05s0.435,0.998,0.435,1.682
				c0,0.558-0.108,1.075-0.325,1.553c-0.216,0.478-0.537,0.89-0.964,1.238c-0.427,0.347-0.956,0.618-1.587,0.811
				c-0.632,0.193-1.363,0.29-2.194,0.29c-0.672,0-1.323-0.083-1.955-0.248c-0.632-0.165-1.189-0.424-1.673-0.777
				c-0.484-0.352-0.868-0.802-1.152-1.348c-0.284-0.546-0.421-1.194-0.409-1.945h2.595
				C74.744,173.164,74.818,173.511,74.966,173.796z"/>
			<path style="fill:#FFFFFF;" d="M83.04,166.866v-2.253h9.986v2.253h-3.653v9.934h-2.68v-9.934H83.04z"/>
			<path style="fill:#FFFFFF;" d="M98.932,164.613l4.558,12.188h-2.782l-0.922-2.714h-4.558l-0.956,2.714h-2.697l4.609-12.188
				H98.932z M99.085,172.09l-1.536-4.472h-0.034l-1.588,4.472H99.085z"/>
			<path style="fill:#FFFFFF;" d="M102.022,166.866v-2.253h9.986v2.253h-3.653v9.934h-2.68v-9.934H102.022z"/>
			<path style="fill:#FFFFFF;" d="M122.523,164.613v2.253h-6.436v2.611h5.907v2.083h-5.907v2.987h6.572v2.253h-9.252v-12.188
				H122.523z"/>
			<path style="fill:#FFFFFF;" d="M132.986,164.613l2.851,8.381h0.034l2.697-8.381h3.773V176.8h-2.509v-8.637h-0.034l-2.988,8.637
				h-2.065l-2.987-8.552h-0.034v8.552h-2.509v-12.188H132.986z"/>
			<path style="fill:#FFFFFF;" d="M150.773,164.613l4.558,12.188h-2.782l-0.922-2.714h-4.558l-0.956,2.714h-2.698l4.609-12.188
				H150.773z M150.927,172.09l-1.537-4.472h-0.034l-1.588,4.472H150.927z"/>
			<path style="fill:#FFFFFF;" d="M159.052,164.613l5.087,8.176h0.033v-8.176h2.509V176.8h-2.68l-5.07-8.159h-0.034v8.159h-2.509
				v-12.188H159.052z"/>
			<path style="fill:#FFFFFF;" d="M175.115,164.613l4.558,12.188h-2.782l-0.922-2.714h-4.558l-0.956,2.714h-2.698l4.609-12.188
				H175.115z M175.269,172.09l-1.537-4.472h-0.034l-1.588,4.472H175.269z"/>
			<path style="fill:#FFFFFF;" d="M187.952,176.707c-0.581,0.244-1.167,0.367-1.758,0.367c-0.934,0-1.773-0.163-2.518-0.486
				c-0.745-0.325-1.374-0.771-1.886-1.34c-0.513-0.569-0.905-1.238-1.178-2.005c-0.274-0.769-0.41-1.596-0.41-2.484
				c0-0.911,0.136-1.755,0.41-2.535c0.273-0.78,0.665-1.46,1.178-2.041c0.512-0.58,1.14-1.035,1.886-1.365
				c0.745-0.33,1.585-0.495,2.518-0.495c0.626,0,1.232,0.094,1.818,0.281c0.585,0.188,1.115,0.464,1.588,0.829
				c0.472,0.364,0.862,0.813,1.169,1.348c0.308,0.534,0.495,1.149,0.564,1.843h-2.56c-0.16-0.683-0.467-1.195-0.922-1.537
				c-0.456-0.341-1.008-0.512-1.656-0.512c-0.603,0-1.116,0.117-1.537,0.35c-0.421,0.233-0.762,0.546-1.024,0.938
				c-0.262,0.393-0.453,0.839-0.572,1.34c-0.12,0.501-0.179,1.018-0.179,1.553c0,0.512,0.06,1.01,0.179,1.493
				c0.119,0.483,0.31,0.919,0.572,1.306c0.262,0.386,0.603,0.697,1.024,0.93c0.421,0.233,0.934,0.35,1.537,0.35
				c0.887,0,1.573-0.225,2.057-0.674c0.483-0.45,0.765-1.101,0.844-1.955h-2.697v-1.996h5.121v6.589h-1.707l-0.273-1.383
				C189.062,176.033,188.533,176.462,187.952,176.707z"/>
			<path style="fill:#FFFFFF;" d="M197.46,164.613l2.851,8.381h0.034l2.697-8.381h3.772V176.8h-2.509v-8.637h-0.034l-2.987,8.637
				h-2.065l-2.988-8.552h-0.034v8.552h-2.509v-12.188H197.46z"/>
			<path style="fill:#FFFFFF;" d="M218.285,164.613v2.253h-6.436v2.611h5.906v2.083h-5.906v2.987h6.572v2.253h-9.252v-12.188
				H218.285z"/>
			<path style="fill:#FFFFFF;" d="M222.894,164.613l5.086,8.176h0.034v-8.176h2.509V176.8h-2.68l-5.07-8.159h-0.034v8.159h-2.509
				v-12.188H222.894z"/>
			<path style="fill:#FFFFFF;" d="M231.923,166.866v-2.253h9.986v2.253h-3.653v9.934h-2.68v-9.934H231.923z"/>
		</g>
	</g>
</g>
</svg>
