<svg style="position: absolute; width: 0; height: 0;" width="0" height="0" version="1.1" xmlns="http://www.w3.org/2000/svg" xmlns:xlink="http://www.w3.org/1999/xlink">
<defs>
<symbol id="arrow" viewBox="0 0 1024 1024">
<path  class="path1" d="M512 1024c-283.106 0-512-228.894-512-512s228.894-512 512-512 512 228.894 512 512-228.894 512-512 512zM512 20.078c-271.059 0-491.922 220.863-491.922 491.922s220.863 491.922 491.922 491.922c271.059 0 491.922-220.863 491.922-491.922s-220.863-491.922-491.922-491.922z"></path>
<path  class="path2" d="M512 805.145c-6.024 0-10.039-4.016-10.039-10.039v-566.212c0-6.024 4.016-10.039 10.039-10.039s10.039 4.016 10.039 10.039v564.204c0 6.024-4.016 12.047-10.039 12.047z"></path>
<path  class="path3" d="M512 805.145c-2.008 0-6.024 0-8.031-2.008l-250.98-250.98c-4.016-4.016-4.016-10.039 0-14.055s10.039-4.016 14.055 0l242.949 242.949 242.949-242.949c4.016-4.016 10.039-4.016 14.055 0s4.016 10.039 0 14.055l-246.965 250.98c-2.008 2.008-6.024 2.008-8.031 2.008z"></path>
</symbol>
<symbol id="phone" viewBox="0 0 1024 1024">
<path class="path1" d="M512 0c-282.767 0-512 229.233-512 512s229.233 512 512 512c282.778 0 512-229.233 512-512s-229.222-512-512-512zM647.352 823.316c-43.561-3.297-327.578-71.506-447.191-409.344-24.218-70.84 5.714-185.078 86.753-210.586 82.217-26.563 124.293 88.31 136.264 160.942l-71.721 71.649c0 0-2.028 44.78 96.123 142.93 98.038 98.089 142.889 96.092 142.889 96.092l83.333-83.261c52.664 11.11 158.208 78.172 158.208 78.172-13.117 99.021-80.261 164.444-184.658 153.405z"></path>
</symbol>
</defs>
</svg>
